<svg width="104" height="42" viewBox="0 0 104 42" fill="none" xmlns="http://www.w3.org/2000/svg">
<path d="M22.7687 24.0721C25.2515 24.0721 27.2627 22.1017 27.2627 19.6692C27.2627 17.2368 25.2515 15.2664 22.7687 15.2664C20.2859 15.2664 18.2747 17.2368 18.2747 19.6692C18.2747 22.1017 20.2859 24.0721 22.7687 24.0721Z" fill="url(#paint0_linear_1_1169)"/>
<path d="M36.5706 27.4664H35.3021C35.1774 27.4664 35.0798 27.3708 35.0798 27.2487V12.1149C35.0798 11.9927 35.1774 11.8971 35.3021 11.8971H36.5706C36.6953 11.8971 36.7929 11.9927 36.7929 12.1149V13.6896C36.7929 13.8887 37.0395 13.9817 37.1805 13.8356C37.7741 13.2196 38.4761 12.723 39.2838 12.3459C40.2732 11.8838 41.3303 11.6501 42.4524 11.6501C43.7806 11.6501 44.9759 11.9396 46.0357 12.5185C47.0955 13.0974 47.9195 13.8967 48.5158 14.9218C49.1121 15.9441 49.4103 17.1019 49.4103 18.3952V27.2513C49.4103 27.3735 49.3127 27.4691 49.188 27.4691H47.9358C47.8111 27.4691 47.7135 27.3735 47.7135 27.2513V18.7696C47.7135 17.6915 47.494 16.7328 47.0576 15.8963C46.6185 15.0625 46.0005 14.4172 45.2036 13.9578C44.404 13.501 43.4905 13.27 42.4578 13.27C41.3628 13.27 40.3897 13.5409 39.5332 14.0799C38.6767 14.619 38.0072 15.3679 37.5247 16.3239C37.0422 17.2799 36.801 18.3686 36.801 19.5928V27.246C36.801 27.3682 36.7034 27.4638 36.5787 27.4638L36.5706 27.4664Z" fill="#291B89"/>
<path d="M56.2729 25.3755C56.2729 25.3755 56.2621 25.3649 56.2566 25.3596C54.6818 23.7291 53.8931 21.8251 53.8931 19.6475C53.8931 18.5588 54.0936 17.5337 54.4921 16.5804C54.8905 15.6244 55.4787 14.7561 56.2593 13.9753C57.0481 13.2132 57.9317 12.6343 58.9102 12.2386C59.8914 11.843 60.9377 11.6438 62.049 11.6438C63.4395 11.6438 64.7216 11.9678 65.9033 12.6131C67.0851 13.2584 68.0474 14.148 68.79 15.2766C69.5327 16.4051 69.961 17.6612 70.0694 19.0394C70.0884 19.2598 70.0965 19.6263 70.0992 20.1362C70.0992 20.2583 70.0016 20.3566 69.8769 20.3566H55.9205C55.7877 20.3566 55.6793 20.4734 55.6983 20.6009C55.8311 21.5728 56.1726 22.4597 56.7201 23.2564C57.311 24.1194 58.0754 24.7992 59.0105 25.2879C59.9456 25.7791 60.9621 26.0261 62.0517 26.0261C63.2823 26.0261 64.4153 25.7127 65.4588 25.086C66.459 24.4832 67.2179 23.6813 67.7411 22.6722C67.779 22.5978 67.8549 22.55 67.9389 22.55H69.3592C69.5192 22.55 69.6303 22.712 69.5652 22.8528C69.1614 23.7583 68.6138 24.5603 67.92 25.256C67.1529 26.0288 66.2611 26.6236 65.2474 27.0432C64.231 27.4627 63.1711 27.6725 62.0571 27.6725C59.8616 27.6725 57.9371 26.9051 56.2783 25.3675V25.3728L56.2729 25.3755ZM68.0202 18.7208C68.1558 18.7208 68.2642 18.5986 68.2398 18.4685C68.0717 17.5391 67.7167 16.6946 67.18 15.9351C66.5945 15.1119 65.8546 14.464 64.9574 13.9966C64.0602 13.5292 63.0898 13.2929 62.0463 13.2929C61.0027 13.2929 59.989 13.5292 59.0701 13.9966C58.1486 14.464 57.3896 15.1093 56.796 15.9351C56.2512 16.6919 55.8907 17.5364 55.7227 18.4685C55.6983 18.6013 55.8067 18.7234 55.9422 18.7234H68.0202V18.7208Z" fill="#291B89"/>
<path d="M77.9329 27.3011C77.0927 27.0063 76.3934 26.5947 75.835 26.0636C75.2793 25.5352 74.908 24.9191 74.7183 24.2233C74.6288 23.9047 74.5854 23.5621 74.5854 23.1957C74.5854 23.1266 74.5909 23.0337 74.599 22.9222C74.6071 22.808 74.7047 22.7203 74.8213 22.7203H75.8892C76.0166 22.7203 76.1196 22.8292 76.1115 22.9567C76.1115 22.9965 76.106 23.0284 76.106 23.0523C76.106 23.6604 76.3256 24.2021 76.762 24.6748C77.1984 25.1475 77.7757 25.5113 78.4831 25.7662C79.1933 26.0211 79.9414 26.1486 80.7302 26.1486C81.5759 26.1486 82.3429 26.0238 83.026 25.7795C83.7117 25.5352 84.2457 25.1953 84.636 24.7677C85.0236 24.3402 85.2242 23.8542 85.235 23.3125C85.2161 22.5796 84.8718 21.9821 84.2023 21.5253C83.5328 21.0686 82.4297 20.6782 80.8928 20.3596C79.9956 20.187 79.2719 20.0276 78.7136 19.8816C78.1579 19.7355 77.6212 19.5629 77.1116 19.3611C76.266 19.0052 75.6344 18.5538 75.2224 18.0068C74.6261 17.2234 74.4581 16.2116 74.721 14.9768C74.7237 14.9635 74.7291 14.9503 74.7345 14.937C75.2089 13.6783 76.163 12.7568 77.586 12.1673C78.5211 11.7822 79.5701 11.5884 80.7302 11.5884C81.8903 11.5884 82.988 11.7849 83.9286 12.1753C84.8691 12.5656 85.6037 13.1073 86.1295 13.8031C86.6553 14.4988 86.921 15.2796 86.921 16.1479C86.921 16.209 86.9156 16.2966 86.9074 16.4082C86.8993 16.5197 86.8017 16.61 86.6852 16.61H85.3679C85.3787 16.5436 85.3841 16.4427 85.3841 16.3046C85.3841 15.7443 85.1808 15.2264 84.7715 14.7485C84.3622 14.2705 83.8039 13.8907 83.0937 13.6119C82.3836 13.3331 81.5975 13.1923 80.7302 13.1923C79.8628 13.1923 79.1174 13.3171 78.4344 13.5614C77.7486 13.8057 77.2146 14.1483 76.8243 14.5812C76.434 15.014 76.2416 15.5026 76.2416 16.0443C76.2416 16.3152 76.3012 16.5675 76.4259 16.8038C76.5506 17.0402 76.724 17.234 76.9517 17.3907C77.1577 17.5341 77.5236 17.704 78.044 17.8979C78.4859 18.0705 78.8816 18.2059 79.2258 18.2962C79.5701 18.3865 80.1772 18.5326 81.0419 18.7238C82.4378 19.0132 83.5627 19.3584 84.4083 19.7594C85.254 20.1604 85.8774 20.649 86.2786 21.22C86.8261 22.0086 86.9996 23.0257 86.7909 24.2658C86.7909 24.2818 86.7827 24.2951 86.7773 24.311C86.3111 25.6228 85.3489 26.5761 83.8906 27.171C82.9555 27.5534 81.9011 27.7419 80.7302 27.7419C79.7083 27.7419 78.7732 27.5959 77.9302 27.3011H77.9275H77.9329Z" fill="#291B89"/>
<path d="M94.7542 27.3011C93.914 27.0063 93.2146 26.5947 92.6563 26.0636C92.1006 25.5352 91.7293 24.9191 91.5396 24.2233C91.4501 23.9047 91.4067 23.5621 91.4067 23.1957C91.4067 23.1266 91.4122 23.0337 91.4203 22.9222C91.4284 22.808 91.526 22.7203 91.6426 22.7203H92.7105C92.8379 22.7203 92.9409 22.8292 92.9327 22.9567C92.9327 22.9965 92.9273 23.0284 92.9273 23.0523C92.9273 23.6604 93.1469 24.2021 93.5833 24.6748C94.0197 25.1475 94.597 25.5113 95.3044 25.7662C96.0146 26.0211 96.7627 26.1486 97.5515 26.1486C98.3971 26.1486 99.1642 26.0238 99.8473 25.7795C100.533 25.5352 101.067 25.1953 101.457 24.7677C101.845 24.3402 102.045 23.8542 102.056 23.3125C102.037 22.5796 101.693 21.9821 101.024 21.5253C100.354 21.0686 99.2509 20.6782 97.7141 20.3596C96.8169 20.187 96.0932 20.0276 95.5376 19.8816C94.9819 19.7355 94.4452 19.5629 93.9356 19.3611C93.09 19.0052 92.4584 18.5538 92.0464 18.0068C91.4501 17.2234 91.282 16.2116 91.545 14.9768C91.5477 14.9635 91.5531 14.9503 91.5585 14.937C92.0329 13.6783 92.987 12.7568 94.41 12.1673C95.3451 11.7822 96.3941 11.5884 97.5542 11.5884C98.7143 11.5884 99.812 11.7849 100.753 12.1753C101.693 12.5656 102.428 13.1073 102.954 13.8031C103.479 14.4988 103.745 15.2796 103.745 16.1479C103.745 16.209 103.74 16.2966 103.731 16.4082C103.723 16.5197 103.626 16.61 103.509 16.61H102.192C102.203 16.5436 102.208 16.4427 102.208 16.3046C102.208 15.7443 102.005 15.2264 101.596 14.7485C101.186 14.2705 100.628 13.8907 99.9177 13.6119C99.2076 13.3331 98.4215 13.1923 97.5542 13.1923C96.6868 13.1923 95.9414 13.3171 95.2584 13.5614C94.5726 13.8057 94.0386 14.1483 93.6483 14.5812C93.258 15.014 93.0656 15.5026 93.0656 16.0443C93.0656 16.3152 93.1252 16.5675 93.2499 16.8038C93.3746 17.0402 93.548 17.234 93.7757 17.3907C93.9817 17.5341 94.3476 17.704 94.868 17.8979C95.3099 18.0705 95.7056 18.2059 96.0498 18.2962C96.3941 18.3865 97.0012 18.5326 97.8659 18.7238C99.2618 19.0132 100.387 19.3584 101.232 19.7594C102.078 20.1604 102.701 20.649 103.103 21.22C103.65 22.0086 103.824 23.0257 103.615 24.2658C103.615 24.2818 103.607 24.2951 103.601 24.311C103.135 25.6228 102.173 26.5761 100.715 27.171C99.7795 27.5534 98.7251 27.7419 97.5542 27.7419C96.5323 27.7419 95.5972 27.5959 94.7542 27.3011Z" fill="#291B89"/>
<path d="M17.0139 25.3755C17.0139 25.3755 17.003 25.3649 16.9976 25.3596C15.4228 23.7291 14.634 21.8251 14.634 19.6475C14.634 18.5588 14.8346 17.5337 15.2331 16.5804C15.6315 15.6244 16.2197 14.7561 17.0003 13.9753C17.7891 13.2132 18.6727 12.6343 19.6512 12.2386C20.6324 11.843 21.6786 11.6438 22.79 11.6438C23.9717 11.6438 25.0885 11.8748 26.1429 12.3316C27.1972 12.7883 28.1107 13.4389 28.8832 14.2781C29.5879 15.0429 30.1219 15.9165 30.4878 16.8964C30.542 17.0372 30.4309 17.1859 30.2764 17.1859H28.8751C28.7856 17.1859 28.707 17.1328 28.6718 17.0557C28.3519 16.3281 27.9074 15.6882 27.3409 15.1332C26.7392 14.5436 26.048 14.0922 25.2674 13.7709C24.484 13.4522 23.66 13.2929 22.7927 13.2929C21.6 13.2929 20.5158 13.5717 19.5346 14.132C18.5534 14.6923 17.7809 15.4571 17.2144 16.4264C16.6479 17.3957 16.366 18.4685 16.366 19.6475C16.366 20.8266 16.6479 21.8994 17.2144 22.8767C17.7809 23.8512 18.5561 24.6187 19.5428 25.187C20.5294 25.7526 21.6109 26.0341 22.7927 26.0341C23.66 26.0341 24.484 25.8747 25.2674 25.5561C26.0507 25.2374 26.7419 24.7833 27.3409 24.1938C27.9074 23.6388 28.3519 23.0041 28.6718 22.2845C28.707 22.2048 28.7856 22.1544 28.8751 22.1544H30.2764C30.4309 22.1544 30.5393 22.3031 30.4851 22.4438C30.1192 23.4157 29.5852 24.2841 28.8832 25.0489C28.1107 25.888 27.1972 26.536 26.1429 26.9954C25.0885 27.4521 23.9717 27.6831 22.79 27.6831C20.5944 27.6831 18.67 26.9157 17.0111 25.3782L17.0139 25.3755Z" fill="#291B89"/>
<path d="M27.9349 28.8636L26.8155 29.4159C26.707 29.4691 26.661 29.6018 26.7179 29.708L31.6104 39.2493C31.6646 39.3556 31.8001 39.4007 31.9085 39.3449L33.028 38.7926C33.1364 38.7395 33.1825 38.6067 33.1255 38.5005L28.2331 28.9592C28.1789 28.8503 28.0433 28.8078 27.9349 28.8609V28.8636Z" fill="#291B89"/>
<path d="M20.4347 30.3259L19.2204 40.9373C19.2068 41.0568 19.2936 41.1657 19.4155 41.179L20.6597 41.3144C20.7816 41.3277 20.8928 41.2427 20.9063 41.1232L22.1206 30.5118C22.1342 30.3923 22.0475 30.2834 21.9255 30.2701L20.6814 30.1347C20.5594 30.1214 20.4483 30.2064 20.4347 30.3259Z" fill="#291B89"/>
<path d="M14.8186 27.4836L7.8932 35.729C7.8146 35.822 7.82814 35.9601 7.92301 36.0344L8.89067 36.8151C8.98553 36.8921 9.12648 36.8789 9.20237 36.7859L16.1277 28.5405C16.2063 28.4476 16.1928 28.3095 16.0979 28.2351L15.1303 27.4544C15.0354 27.3774 14.8944 27.3907 14.8186 27.4836Z" fill="#291B89"/>
<path d="M11.6987 22.1048L1.30389 25.3154C1.18734 25.3525 1.12228 25.4747 1.15752 25.5889L1.53427 26.76C1.57222 26.8742 1.6969 26.9379 1.81346 26.9034L12.2083 23.6928C12.3248 23.6557 12.3899 23.5335 12.3546 23.4193L11.9779 22.2482C11.9399 22.134 11.8152 22.0703 11.6987 22.1048Z" fill="#291B89"/>
<path d="M1.30127 13.2155L0.965165 14.3972C0.932639 14.514 1.0004 14.6335 1.11966 14.6654L11.6202 17.5307C11.7394 17.5626 11.8614 17.4962 11.8939 17.3793L12.23 16.1976C12.2626 16.0808 12.1948 15.9613 12.0755 15.9294L1.57503 13.0641C1.45577 13.0323 1.33379 13.0986 1.30127 13.2155Z" fill="#291B89"/>
<path d="M8.31334 2.92153L7.37279 3.73411C7.28063 3.81378 7.2725 3.95187 7.35381 4.04216L14.5584 12.0565C14.6397 12.1468 14.7806 12.1548 14.8728 12.0751L15.8133 11.2625C15.9055 11.1829 15.9136 11.0448 15.8323 10.9545L8.62776 2.94012C8.54644 2.84983 8.40549 2.84186 8.31334 2.92153Z" fill="#291B89"/>
<path d="M19.9223 -1.97101L18.6836 -1.79309C18.5616 -1.7745 18.4776 -1.66563 18.4966 -1.54613L20.0714 9.0202C20.0904 9.13969 20.2015 9.22202 20.3235 9.20343L21.5622 9.0255C21.6841 9.00692 21.7682 8.89804 21.7492 8.77854L20.1744 -1.78778C20.1554 -1.90728 20.0443 -1.9896 19.9223 -1.97101Z" fill="#291B89"/>
<path d="M30.9327 -0.254208L26.3682 9.44375C26.3167 9.55263 26.3682 9.68275 26.4767 9.7332L27.6151 10.2484C27.7262 10.2988 27.859 10.2484 27.9105 10.1422L32.475 0.444187C32.5265 0.335311 32.475 0.205191 32.3666 0.154736L31.2282 -0.360435C31.1171 -0.41089 30.9842 -0.360429 30.9327 -0.254208Z" fill="#291B89"/>
<defs>
<linearGradient id="paint0_linear_1_1169" x1="16.5426" y1="13.9599" x2="26.3982" y2="22.5242" gradientUnits="userSpaceOnUse">
<stop offset="0.42" stop-color="#F8B814"/>
<stop offset="1" stop-color="#F28705"/>
</linearGradient>
</defs>
</svg>
