<svg width="25" height="25" viewBox="0 0 25 25" fill="none" xmlns="http://www.w3.org/2000/svg">
<path d="M0.939941 22.6672C0.939941 22.9172 1.02979 23.1321 1.20947 23.3118C1.38916 23.4915 1.604 23.5813 1.854 23.5813H24.0259C24.2759 23.5813 24.4907 23.4915 24.6704 23.3118C24.8501 23.1321 24.9399 22.9172 24.9399 22.6672C24.9399 22.4172 24.8501 22.1985 24.6704 22.011C24.4907 21.8235 24.2759 21.7297 24.0259 21.7297H1.854C1.604 21.7297 1.38916 21.8235 1.20947 22.011C1.02979 22.1985 0.939941 22.4172 0.939941 22.6672ZM8.62744 19.9016H6.1665C5.40088 19.9016 4.74854 19.6282 4.20947 19.0813C3.67041 18.5344 3.40088 17.8782 3.40088 17.1125V9.7063C3.40088 8.94067 3.67041 8.28833 4.20947 7.74927C4.74854 7.21021 5.40088 6.94067 6.1665 6.94067H8.62744C9.39307 6.94067 10.0454 7.21021 10.5845 7.74927C11.1235 8.28833 11.3931 8.94067 11.3931 9.7063V17.1125C11.3931 17.8782 11.1235 18.5344 10.5845 19.0813C10.0454 19.6282 9.39307 19.9016 8.62744 19.9016ZM18.4712 19.9016H16.0103C15.2446 19.9016 14.5923 19.6282 14.0532 19.0813C13.5142 18.5344 13.2446 17.8782 13.2446 17.1125V4.78442C13.2446 4.0188 13.5142 3.36646 14.0532 2.82739C14.5923 2.28833 15.2446 2.0188 16.0103 2.0188H18.4712C19.2368 2.0188 19.8892 2.28833 20.4282 2.82739C20.9673 3.36646 21.2368 4.0188 21.2368 4.78442V17.1125C21.2368 17.8782 20.9673 18.5344 20.4282 19.0813C19.8892 19.6282 19.2368 19.9016 18.4712 19.9016Z" fill="#312B59"/>
</svg>
