<svg width="414" height="341" viewBox="0 0 414 341" fill="none" xmlns="http://www.w3.org/2000/svg">
<mask id="mask0_79_175" style="mask-type:alpha" maskUnits="userSpaceOnUse" x="0" y="0" width="414" height="341">
<g clip-path="url(#clip0_79_175)">
<g clip-path="url(#clip1_79_175)">
<mask id="mask1_79_175" style="mask-type:luminance" maskUnits="userSpaceOnUse" x="85" y="0" width="329" height="341">
<path fill-rule="evenodd" clip-rule="evenodd" d="M85.1661 0.200195H413.34V340.2H85.1661V0.200195Z" fill="white"/>
</mask>
<g mask="url(#mask1_79_175)">
<path d="M614.423 114.529L655.252 186.855C656.654 189.338 657.5 192.095 657.733 194.937C657.966 197.778 657.579 200.636 656.6 203.314C655.621 205.991 654.073 208.425 652.062 210.446C650.052 212.467 647.626 214.028 644.954 215.021L490.407 272.447C486.635 273.847 483.381 276.368 481.084 279.671C478.787 282.974 477.555 286.901 477.555 290.925C477.555 294.948 478.787 298.876 481.084 302.179C483.381 305.482 486.635 308.003 490.407 309.403L644.737 366.74C647.427 367.739 649.865 369.314 651.883 371.354C653.901 373.393 655.449 375.849 656.419 378.549C657.39 381.249 657.759 384.128 657.501 386.986C657.244 389.843 656.365 392.61 654.927 395.093L612.984 467.567C611.587 469.981 609.694 472.071 607.43 473.699C605.165 475.326 602.581 476.455 599.848 477.01C597.115 477.565 594.296 477.534 591.576 476.919C588.856 476.304 586.297 475.118 584.069 473.441L451.44 373.648C448.334 371.311 444.607 369.944 440.726 369.719C436.846 369.494 432.985 370.421 429.631 372.385C426.276 374.348 423.577 377.26 421.872 380.753C420.168 384.246 419.534 388.166 420.051 392.018L442.422 559.328C442.794 562.111 442.568 564.941 441.757 567.63C440.946 570.318 439.571 572.802 437.722 574.915C435.874 577.029 433.595 578.723 431.039 579.884C428.482 581.046 425.707 581.648 422.899 581.649H337.939C335.163 581.649 332.418 581.062 329.884 579.928C327.351 578.793 325.085 577.136 323.237 575.065C321.388 572.994 319.998 570.555 319.157 567.91C318.316 565.264 318.043 562.47 318.357 559.712L337.495 391.338C337.936 387.494 337.236 383.604 335.481 380.155C333.727 376.706 330.996 373.85 327.629 371.942C324.262 370.035 320.408 369.161 316.547 369.429C312.687 369.698 308.991 371.096 305.92 373.451L169.457 477.777C167.222 479.484 164.648 480.693 161.907 481.322C159.167 481.952 156.323 481.988 153.567 481.428C150.812 480.868 148.208 479.725 145.931 478.075C143.653 476.425 141.756 474.308 140.364 471.864L96.6078 394.994C95.1956 392.515 94.3386 389.758 94.096 386.915C93.8534 384.072 94.2311 381.21 95.2029 378.527C96.1746 375.844 97.7174 373.404 99.7244 371.376C101.731 369.348 104.155 367.779 106.828 366.779L260.192 309.393C263.951 307.986 267.191 305.464 269.478 302.165C271.765 298.867 272.991 294.949 272.991 290.935C272.991 286.921 271.765 283.003 269.478 279.704C267.191 276.405 263.951 273.884 260.192 272.476L107.084 215.179C104.393 214.171 101.955 212.587 99.9412 210.538C97.9271 208.488 96.3854 206.024 95.424 203.316C94.4626 200.608 94.1048 197.723 94.3757 194.863C94.6466 192.002 95.5396 189.236 96.9922 186.757L140.394 112.528C141.795 110.133 143.687 108.06 145.945 106.446C148.203 104.831 150.776 103.712 153.496 103.162C156.217 102.611 159.023 102.641 161.73 103.25C164.438 103.858 166.987 105.032 169.21 106.694L305.831 208.931C308.921 211.243 312.621 212.597 316.474 212.826C320.326 213.054 324.161 212.146 327.502 210.215C330.844 208.285 333.545 205.415 335.27 201.963C336.996 198.511 337.67 194.629 337.21 190.797L316.928 22.2756C316.593 19.5081 316.85 16.7012 317.68 14.0402C318.51 11.3791 319.895 8.9244 321.744 6.83813C323.593 4.75185 325.863 3.08146 328.405 1.93723C330.947 0.792999 333.703 0.200959 336.49 0.200195L422.89 0.200195C425.698 0.200709 428.474 0.801479 431.032 1.96225C433.589 3.12302 435.869 4.81699 437.719 6.93066C439.569 9.04432 440.945 11.5289 441.756 14.2178C442.567 16.9068 442.795 19.7381 442.422 22.5219L420.022 190.107C419.508 193.952 420.141 197.862 421.839 201.348C423.538 204.835 426.227 207.743 429.571 209.708C432.914 211.674 436.763 212.609 440.636 212.397C444.508 212.185 448.232 210.835 451.341 208.517L585.469 108.438C587.713 106.764 590.287 105.587 593.022 104.985C595.756 104.383 598.587 104.371 601.327 104.949C604.066 105.528 606.651 106.683 608.909 108.338C611.167 109.993 613.047 112.11 614.423 114.549V114.529Z" fill="black"/>
</g>
</g>
</g>
</mask>
<g mask="url(#mask0_79_175)">
<rect width="413.34" height="340" transform="translate(0 0.200195)" fill="#A492F2"/>
</g>
<defs>
<clipPath id="clip0_79_175">
<rect width="413.34" height="340" fill="white" transform="translate(0 0.200195)"/>
</clipPath>
<clipPath id="clip1_79_175">
<rect width="328.174" height="340" fill="white" transform="translate(85.1661 0.200195)"/>
</clipPath>
</defs>
</svg>
