<svg width="737" height="666" viewBox="0 0 737 666" fill="none" xmlns="http://www.w3.org/2000/svg">
<path d="M674.143 77.3788L732.676 177.978C734.989 181.956 736.38 186.373 736.762 190.924C737.144 195.476 736.5 200.053 734.882 204.34C733.26 208.628 730.7 212.523 727.378 215.757C724.055 218.99 720.05 221.486 715.636 223.071L492.229 303.632C486.019 305.879 480.661 309.915 476.88 315.2C473.097 320.486 471.071 326.766 471.071 333.2C471.071 339.634 473.097 345.913 476.88 351.199C480.661 356.485 486.019 360.52 492.229 362.767L715.244 443.202C719.681 444.802 723.701 447.323 727.031 450.586C730.357 453.852 732.909 457.781 734.512 462.101C736.112 466.424 736.721 471.031 736.298 475.604C735.876 480.176 734.427 484.606 732.057 488.579L671.931 589.431C669.625 593.296 666.504 596.641 662.768 599.248C659.031 601.854 654.768 603.659 650.259 604.549C645.75 605.439 641.098 605.388 636.608 604.404C632.121 603.419 627.902 601.52 624.226 598.834L431.712 458.254C426.587 454.518 420.44 452.331 414.04 451.975C407.641 451.618 401.276 453.104 395.745 456.247C390.213 459.39 385.76 464.048 382.949 469.636C380.137 475.228 379.093 481.498 379.942 487.664L412.428 723.447C413.043 727.906 412.671 732.441 411.336 736.748C409.998 741.055 407.726 745.034 404.675 748.42C401.623 751.806 397.862 754.517 393.64 756.379C389.418 758.237 384.836 759.2 380.203 759.2H258.124C253.543 759.203 249.014 758.262 244.83 756.448C240.649 754.634 236.91 751.98 233.858 748.663C230.807 745.347 228.51 741.443 227.121 737.205C225.733 732.971 225.285 728.496 225.802 724.078L253.637 486.591C254.357 480.444 253.199 474.231 250.308 468.718C247.418 463.205 242.921 458.639 237.377 455.588C231.832 452.533 225.487 451.129 219.128 451.549C212.766 451.965 206.676 454.187 201.607 457.939L3.14293 605.114C-0.544029 607.847 -4.79076 609.781 -9.31236 610.791C-13.834 611.797 -18.5253 611.854 -23.0718 610.958C-27.6181 610.062 -31.914 608.232 -35.6713 605.59C-39.4287 602.949 -42.5599 599.56 -44.8553 595.647L-107.747 488.39C-110.067 484.42 -111.472 480.006 -111.864 475.458C-112.257 470.908 -111.627 466.333 -110.02 462.041C-108.412 457.753 -105.865 453.852 -102.553 450.612C-99.241 447.368 -95.2438 444.862 -90.8371 443.266L130.78 362.767C136.993 360.52 142.349 356.485 146.131 351.199C149.913 345.913 151.94 339.634 151.94 333.2C151.94 326.766 149.913 320.486 146.131 315.2C142.349 309.915 136.993 305.879 130.78 303.632L-90.4469 223.323C-94.8861 221.71 -98.9081 219.174 -102.231 215.893C-105.554 212.612 -108.098 208.666 -109.684 204.332C-111.27 199.996 -111.86 195.378 -111.413 190.798C-110.967 186.218 -109.493 181.789 -107.097 177.82L-44.79 74.4442C-42.4782 70.6086 -39.3574 67.2899 -35.6322 64.7058C-31.9068 62.1214 -27.6613 60.33 -23.1731 59.448C-18.685 58.5663 -14.0555 58.6143 -9.58752 59.5891C-5.11989 60.5635 -0.914803 62.4429 2.7529 65.1037L201.444 209.313C206.544 213.014 212.647 215.183 219.005 215.548C225.36 215.914 231.687 214.461 237.2 211.37C242.713 208.278 247.168 203.684 250.015 198.158C252.861 192.632 253.975 186.416 253.214 180.281L223.719 -57.4581C223.167 -61.89 223.59 -66.3851 224.963 -70.6465C226.332 -74.9079 228.62 -78.8387 231.671 -82.179C234.723 -85.5193 238.472 -88.1933 242.665 -90.0242C246.862 -91.8551 251.409 -92.8013 256.01 -92.8003H380.235C384.867 -92.7953 389.446 -91.8298 393.662 -89.9685C397.878 -88.1072 401.639 -85.3931 404.687 -82.0079C407.736 -78.6227 410.001 -74.6446 411.336 -70.3399C412.671 -66.0352 413.043 -61.5034 412.428 -57.0478L379.91 179.145C379.061 185.3 380.106 191.56 382.908 197.142C385.71 202.724 390.147 207.38 395.662 210.526C401.178 213.672 407.531 215.17 413.921 214.83C420.307 214.491 426.451 212.33 431.582 208.618L626.371 67.5966C630.073 64.9156 634.32 63.0308 638.833 62.0677C643.345 61.1047 648.015 61.0851 652.534 62.0106C657.056 62.9362 661.319 64.7856 665.046 67.4353C668.769 70.0854 671.871 73.4751 674.143 77.3788Z" fill="black"/>
</svg>
