<svg width="46" height="46" viewBox="0 0 46 46" fill="none" xmlns="http://www.w3.org/2000/svg">
<path d="M30.7952 37.6855C31.5862 37.6855 32.3625 37.6855 33.1243 37.6855C33.886 37.6855 34.6624 37.6855 35.4534 37.6855C36.303 37.6855 37.1672 37.6855 38.0461 37.6855C38.925 37.6855 39.804 37.6855 40.6829 37.6855C42.0891 37.627 43.3196 37.0776 44.3743 36.0376C45.429 34.9976 45.9709 33.7744 46.0002 32.3682C46.0002 30.7568 46.0002 29.1455 46.0002 27.5342C46.0002 25.9229 45.9856 24.3115 45.9563 22.7002C45.9563 22.3779 45.927 22.0483 45.8684 21.7114C45.8098 21.3745 45.7219 21.0596 45.6047 20.7666C45.3118 19.8877 44.6965 19.0674 43.759 18.3057C42.8215 17.5439 41.6057 17.1631 40.1116 17.1631C38.9104 17.1924 37.7166 17.1997 36.53 17.1851C35.3435 17.1704 34.1643 17.1631 32.9924 17.1631C32.6116 17.1631 32.3699 17.1045 32.2673 16.9873C32.1648 16.8701 32.1575 16.6357 32.2454 16.2842C32.6555 14.6729 33.3 13.23 34.179 11.9556C35.0579 10.6812 36.2151 9.58984 37.6506 8.68164C37.7678 8.62305 37.8484 8.51318 37.8923 8.35205C37.9363 8.19092 38.0022 8.05176 38.0901 7.93457C37.9436 7.87598 37.7971 7.81738 37.6506 7.75879C37.5042 7.7002 37.3723 7.68555 37.2551 7.71484C36.7571 7.86133 36.259 8.01514 35.761 8.17627C35.2629 8.3374 34.7795 8.53516 34.3108 8.76953C32.8167 9.50195 31.5129 10.3516 30.3997 11.3184C29.2864 12.3145 28.3489 13.4131 27.5872 14.6143C26.8254 15.8154 26.2249 17.1191 25.7854 18.5254C25.3459 19.9316 25.0676 21.4258 24.9504 23.0078C24.8625 24.502 24.8333 25.9961 24.8625 27.4902C24.8918 28.9844 24.9211 30.4785 24.9504 31.9727C24.9504 33.6426 25.4998 35.0122 26.5984 36.0815C27.697 37.1509 29.0959 37.6855 30.7952 37.6855ZM6.93286 37.6855C7.69458 37.6855 8.47095 37.6855 9.26196 37.6855C10.053 37.6855 10.8293 37.6855 11.5911 37.6855C12.47 37.6855 13.3416 37.6855 14.2058 37.6855C15.0701 37.6855 15.927 37.6855 16.7766 37.6855C18.2415 37.627 19.4939 37.0776 20.5339 36.0376C21.574 34.9976 22.1086 33.7598 22.1379 32.3242C22.1379 30.7129 22.1379 29.1089 22.1379 27.5122C22.1379 25.9155 22.1379 24.3115 22.1379 22.7002C22.1379 22.3779 22.1013 22.0483 22.0281 21.7114C21.9548 21.3745 21.8596 21.0449 21.7424 20.7227C21.3323 19.6094 20.6438 18.7451 19.677 18.1299C18.7102 17.5146 17.553 17.207 16.2053 17.207C15.0334 17.1777 13.8542 17.1704 12.6677 17.1851C11.4812 17.1997 10.302 17.207 9.13013 17.207C8.77856 17.207 8.54419 17.1411 8.427 17.0093C8.30981 16.8774 8.29517 16.665 8.38306 16.3721C8.76392 14.7607 9.40112 13.3105 10.2947 12.0215C11.1882 10.7324 12.3528 9.63379 13.7883 8.72559C13.9055 8.6377 13.9934 8.52051 14.052 8.37402C14.1106 8.22754 14.1692 8.0957 14.2278 7.97852C14.0813 7.91992 13.9348 7.854 13.7883 7.78076C13.6418 7.70752 13.51 7.7002 13.3928 7.75879C12.8948 7.90527 12.4041 8.05176 11.9207 8.19824C11.4373 8.34473 10.9612 8.53516 10.4924 8.76953C8.99829 9.50195 7.69458 10.3662 6.5813 11.3623C5.43872 12.3291 4.48657 13.4131 3.72485 14.6143C2.96313 15.8154 2.36255 17.1191 1.9231 18.5254C1.48364 19.9316 1.20532 21.4404 1.08813 23.0518C1.00024 24.5459 0.970947 26.04 1.00024 27.5342C1.02954 29.0283 1.05884 30.5225 1.08813 32.0166C1.08813 33.6865 1.63013 35.0488 2.71411 36.1035C3.7981 37.1582 5.1897 37.6855 6.88892 37.6855H6.93286Z" fill="#291B89"/>
</svg>
