<svg width="25" height="25" viewBox="0 0 25 25" fill="none" xmlns="http://www.w3.org/2000/svg">
<path d="M21.3604 16.7375C21.5635 16.9719 21.7158 17.2219 21.8174 17.4875C21.9189 17.7532 21.9697 18.0344 21.9697 18.3313C21.9697 18.7844 21.8486 19.2102 21.6064 19.6086C21.3643 20.0071 21.0244 20.3313 20.5869 20.5813L14.0479 24.3547C13.7822 24.4954 13.501 24.6047 13.2041 24.6829C12.9072 24.761 12.6025 24.8 12.29 24.8C11.9775 24.8 11.6729 24.761 11.376 24.6829C11.0791 24.6047 10.7979 24.4954 10.5322 24.3547L3.99316 20.5813C3.55566 20.3313 3.21582 20.0071 2.97363 19.6086C2.73145 19.2102 2.61035 18.7844 2.61035 18.3313C2.61035 18.0344 2.66113 17.7532 2.7627 17.4875C2.86426 17.2219 3.00879 16.9719 3.19629 16.7375L9.59473 20.4172C10.001 20.636 10.4307 20.804 10.8838 20.9211C11.3369 21.0383 11.8057 21.0969 12.29 21.0969C12.7744 21.0969 13.2432 21.0383 13.6963 20.9211C14.1494 20.804 14.5869 20.6282 15.0088 20.3938L21.3604 16.7375ZM15.0088 14.8625C14.5869 15.0969 14.1494 15.2727 13.6963 15.3899C13.2432 15.5071 12.7744 15.5657 12.29 15.5657C11.8057 15.5657 11.3369 15.5071 10.8838 15.3899C10.4307 15.2727 10.001 15.0969 9.59473 14.8625L3.19629 11.2063C3.00879 11.425 2.86426 11.6711 2.7627 11.9446C2.66113 12.218 2.61035 12.5032 2.61035 12.8C2.61035 13.2532 2.73145 13.679 2.97363 14.0774C3.21582 14.4758 3.55566 14.8 3.99316 15.05L10.5322 18.8C10.7979 18.9563 11.0791 19.0735 11.376 19.1516C11.6729 19.2297 11.9775 19.2688 12.29 19.2688C12.6025 19.2688 12.9072 19.2297 13.2041 19.1516C13.501 19.0735 13.7822 18.9563 14.0479 18.8L20.5869 15.05C21.0244 14.8 21.3643 14.4758 21.6064 14.0774C21.8486 13.679 21.9697 13.2532 21.9697 12.8C21.9697 12.5032 21.9189 12.218 21.8174 11.9446C21.7158 11.6711 21.5635 11.425 21.3604 11.2063L15.0088 14.8625ZM3.99316 9.5188L10.5322 13.2688C10.7979 13.425 11.0791 13.5383 11.376 13.6086C11.6729 13.679 11.9775 13.7141 12.29 13.7141C12.6025 13.7141 12.9072 13.675 13.2041 13.5969C13.501 13.5188 13.7822 13.4094 14.0479 13.2688L20.5869 9.5188C21.0244 9.2688 21.3643 8.94458 21.6064 8.54614C21.8486 8.14771 21.9697 7.72192 21.9697 7.2688C21.9697 6.81567 21.8486 6.38989 21.6064 5.99146C21.3643 5.59302 21.0244 5.2688 20.5869 5.0188L14.0479 1.2688C13.5166 0.956299 12.9307 0.800049 12.29 0.800049C11.6494 0.800049 11.0635 0.956299 10.5322 1.2688L3.99316 5.0188C3.55566 5.2688 3.21582 5.59302 2.97363 5.99146C2.73145 6.38989 2.61035 6.81567 2.61035 7.2688C2.61035 7.72192 2.73145 8.14771 2.97363 8.54614C3.21582 8.94458 3.55566 9.2688 3.99316 9.5188Z" fill="#312B59"/>
</svg>
