<svg width="19" height="19" viewBox="0 0 19 19" fill="none" xmlns="http://www.w3.org/2000/svg">
<path d="M17.4239 4.71973L18.2501 6.17871C18.3907 6.4248 18.423 6.67969 18.3468 6.94336C18.2706 7.20703 18.1153 7.40918 17.881 7.5498C17.8575 7.56152 17.8341 7.57324 17.8107 7.58496C17.7872 7.59668 17.7579 7.60254 17.7228 7.60254L14.3653 8.86816C14.0958 8.96191 13.9054 9.13477 13.7941 9.38672C13.6827 9.63867 13.6739 9.89355 13.7677 10.1514C13.8146 10.2803 13.8907 10.3975 13.9962 10.5029C14.1017 10.6084 14.2247 10.6846 14.3653 10.7314L17.7228 11.9795C17.9806 12.085 18.1651 12.2607 18.2765 12.5068C18.3878 12.7529 18.3966 13.0107 18.3028 13.2803C18.2911 13.3037 18.2794 13.3271 18.2677 13.3506C18.256 13.374 18.2442 13.3975 18.2325 13.4209L17.3888 14.8799C17.2482 15.126 17.046 15.2842 16.7823 15.3545C16.5187 15.4248 16.2638 15.3896 16.0177 15.249C16.006 15.2373 15.9913 15.2256 15.9737 15.2139C15.9562 15.2021 15.9415 15.1904 15.9298 15.1787L12.9064 12.9287C12.6837 12.7529 12.4376 12.6855 12.1681 12.7266C11.8985 12.7676 11.6817 12.8994 11.5177 13.1221C11.4357 13.2275 11.3771 13.3418 11.3419 13.4648C11.3067 13.5879 11.3009 13.7197 11.3243 13.8604L11.8341 17.6748C11.8692 17.9443 11.8019 18.1875 11.6319 18.4043C11.462 18.6211 11.2423 18.7471 10.9728 18.7822C10.9493 18.7939 10.9259 18.7998 10.9024 18.7998C10.879 18.7998 10.8556 18.7998 10.8321 18.7998H9.0919C8.81065 18.7998 8.57335 18.7031 8.37999 18.5098C8.18663 18.3164 8.08995 18.0791 8.08995 17.7979C8.08995 17.7861 8.08995 17.7686 8.08995 17.7451C8.08995 17.7217 8.08995 17.7041 8.08995 17.6924L8.5294 13.8252C8.56456 13.5439 8.49718 13.2949 8.32725 13.0781C8.15733 12.8613 7.93175 12.7412 7.6505 12.7178C7.52159 12.6943 7.39561 12.7002 7.27257 12.7354C7.14952 12.7705 7.03526 12.8291 6.92979 12.9111L3.80089 15.3193C3.57823 15.4834 3.32921 15.5479 3.05382 15.5127C2.77843 15.4775 2.5587 15.3486 2.39464 15.126C2.38292 15.1025 2.3712 15.082 2.35948 15.0645C2.34776 15.0469 2.33604 15.0322 2.32432 15.0205L1.41026 13.4209C1.26964 13.1748 1.23741 12.9199 1.31358 12.6562C1.38975 12.3926 1.54503 12.1904 1.7794 12.0498C1.80284 12.0381 1.82628 12.0264 1.84971 12.0146C1.87315 12.0029 1.89659 11.9912 1.92003 11.9795L5.27745 10.7314C5.53526 10.6377 5.71983 10.4648 5.83116 10.2129C5.94249 9.96094 5.95128 9.70605 5.85753 9.44824C5.81065 9.31934 5.73448 9.20215 5.62901 9.09668C5.52354 8.99121 5.40636 8.91504 5.27745 8.86816L1.93761 7.62012C1.67979 7.52637 1.49522 7.35352 1.38389 7.10156C1.27257 6.84961 1.26378 6.59473 1.35753 6.33691C1.36925 6.30176 1.38096 6.27246 1.39268 6.24902C1.4044 6.22559 1.41612 6.20215 1.42784 6.17871L2.32432 4.64941C2.46495 4.41504 2.6671 4.2627 2.93077 4.19238C3.19444 4.12207 3.44346 4.15723 3.67784 4.29785C3.70128 4.30957 3.72179 4.31836 3.73936 4.32422C3.75694 4.33008 3.77159 4.33887 3.78331 4.35059L6.92979 6.72363C7.15245 6.8877 7.40147 6.94922 7.67686 6.9082C7.95225 6.86719 8.17198 6.73535 8.33604 6.5127C8.40636 6.40723 8.45909 6.29297 8.49425 6.16992C8.5294 6.04688 8.54112 5.9209 8.5294 5.79199L8.05479 1.9248C8.01964 1.64355 8.08702 1.39453 8.25694 1.17773C8.42686 0.960938 8.65245 0.834961 8.9337 0.799805C8.94542 0.799805 8.963 0.799805 8.98643 0.799805C9.00987 0.799805 9.03331 0.799805 9.05675 0.799805H10.8321C11.1134 0.799805 11.3507 0.896484 11.5441 1.08984C11.7374 1.2832 11.8341 1.52051 11.8341 1.80176C11.8341 1.8252 11.8341 1.84863 11.8341 1.87207C11.8341 1.89551 11.8341 1.91309 11.8341 1.9248L11.3243 5.75684C11.2892 6.03809 11.3536 6.28711 11.5177 6.50391C11.6817 6.7207 11.8985 6.84668 12.1681 6.88184C12.3087 6.90527 12.4405 6.89941 12.5636 6.86426C12.6866 6.8291 12.8009 6.77051 12.9064 6.68848L15.9649 4.4209C16.1876 4.25684 16.4337 4.19238 16.7032 4.22754C16.9728 4.2627 17.1896 4.3916 17.3536 4.61426C17.3771 4.6377 17.3946 4.6582 17.4064 4.67578C17.4181 4.69336 17.4239 4.70801 17.4239 4.71973Z" fill="#CFC9F6"/>
</svg>
