<svg width="25" height="26" viewBox="0 0 25 26" fill="none" xmlns="http://www.w3.org/2000/svg">
<path d="M21.4682 12.4386L21.4834 14.1159C21.4871 14.3994 21.3917 14.6381 21.1972 14.8319C21.0026 15.0256 20.7687 15.1272 20.4954 15.1366C20.4692 15.1354 20.4431 15.1343 20.4169 15.1332C20.3907 15.1321 20.3622 15.123 20.3314 15.106L16.7799 14.585C16.4986 14.5363 16.2481 14.5952 16.0285 14.7616C15.8089 14.9281 15.6776 15.1468 15.6346 15.4179C15.613 15.5534 15.6229 15.6929 15.664 15.8363C15.7051 15.9798 15.7758 16.1061 15.8762 16.2153L18.2085 18.9358C18.383 19.1531 18.4592 19.3964 18.4373 19.6657C18.4153 19.9351 18.298 20.1649 18.0852 20.3553C18.0636 20.3701 18.042 20.3849 18.0203 20.3998C17.9987 20.4146 17.9771 20.4294 17.9555 20.4442L16.5096 21.3116C16.2672 21.4587 16.0136 21.4991 15.7487 21.4327C15.4839 21.3664 15.278 21.212 15.1308 20.9696C15.1263 20.9536 15.1191 20.9363 15.1094 20.9175C15.0997 20.8987 15.0926 20.8814 15.088 20.8654L13.5338 17.4303C13.4243 17.1685 13.2416 16.9902 12.9859 16.8953C12.7302 16.8005 12.4765 16.8107 12.225 16.9259C12.1021 16.9784 11.9954 17.05 11.9049 17.1406C11.8145 17.2312 11.7454 17.3437 11.6977 17.4782L10.2937 21.063C10.1937 21.3159 10.0168 21.496 9.763 21.6033C9.50917 21.7105 9.25581 21.7142 9.00292 21.6142C8.97673 21.6131 8.95338 21.6069 8.93287 21.5955C8.91236 21.5841 8.89185 21.5728 8.87135 21.5614L7.34866 20.7174C7.10257 20.581 6.94182 20.3813 6.86641 20.1183C6.79101 19.8553 6.82151 19.6008 6.95792 19.3547C6.9636 19.3445 6.97213 19.3291 6.9835 19.3086C6.99486 19.2881 7.00339 19.2727 7.00907 19.2624L9.26924 16.0918C9.43641 15.8628 9.49823 15.6122 9.4547 15.3401C9.41117 15.068 9.27204 14.8535 9.03732 14.6965C8.9359 14.6135 8.82283 14.5575 8.69811 14.5286C8.57339 14.4997 8.445 14.4956 8.31293 14.5162L4.40715 15.1058C4.13275 15.1413 3.8836 15.0769 3.65968 14.9126C3.43577 14.7483 3.30603 14.5289 3.27047 14.2545C3.27159 14.2283 3.27128 14.2047 3.26955 14.1836C3.26782 14.1626 3.26467 14.1441 3.2601 14.1281L3.23614 12.2852C3.23246 12.0016 3.32788 11.763 3.52242 11.5692C3.71695 11.3754 3.95086 11.2739 4.22414 11.2645C4.25033 11.2656 4.27652 11.2667 4.30271 11.2678C4.32891 11.269 4.3551 11.2701 4.38129 11.2712L7.92433 11.8076C8.19538 11.8506 8.44071 11.7888 8.66032 11.6224C8.87994 11.4559 9.01125 11.2372 9.05426 10.9661C9.07577 10.8306 9.06596 10.6911 9.02483 10.5477C8.9837 10.4042 8.9181 10.2807 8.82805 10.1772L6.51103 7.4653C6.33092 7.25822 6.25326 7.01746 6.27805 6.74301C6.30284 6.46855 6.41877 6.24127 6.62585 6.06116C6.65315 6.03608 6.67761 6.01613 6.69923 6.00131C6.72086 5.98648 6.74248 5.97166 6.7641 5.95683L8.29025 5.05352C8.52697 4.91665 8.77774 4.8814 9.04255 4.94776C9.30736 5.01412 9.5082 5.16566 9.64508 5.40238C9.6599 5.42401 9.67358 5.44164 9.68612 5.45529C9.69866 5.46895 9.70721 5.48374 9.71178 5.49968L11.314 9.10217C11.4292 9.35371 11.6173 9.52833 11.8781 9.62601C12.139 9.72369 12.3952 9.7149 12.6467 9.59965C12.7594 9.54147 12.861 9.46708 12.9514 9.37646C13.0418 9.28585 13.1132 9.1813 13.1655 9.06283L14.6258 5.44888C14.7315 5.18574 14.9112 5.00053 15.1651 4.89325C15.4189 4.78597 15.6774 4.78515 15.9405 4.8908C15.9508 4.89648 15.9661 4.90501 15.9867 4.91638C16.0072 4.92774 16.0277 4.93911 16.0482 4.95048L17.6016 5.81157C17.8477 5.94798 18.0085 6.14767 18.0839 6.41064C18.1593 6.67361 18.1288 6.92814 17.9924 7.17423C17.981 7.19474 17.9696 7.21525 17.9583 7.23576C17.9469 7.25626 17.9384 7.27165 17.9327 7.2819L15.6281 10.3876C15.4609 10.6167 15.3965 10.8658 15.4349 11.1351C15.4733 11.4044 15.6019 11.6198 15.8207 11.7812C15.9324 11.87 16.0506 11.9288 16.1753 11.9577C16.3 11.9866 16.4284 11.9908 16.5605 11.9701L20.3365 11.4695C20.6109 11.4339 20.8575 11.4969 21.0763 11.6584C21.2951 11.8199 21.4222 12.0378 21.4578 12.3122C21.4669 12.3441 21.4724 12.3706 21.4741 12.3916C21.4758 12.4127 21.4739 12.4283 21.4682 12.4386Z" fill="#312B59"/>
</svg>
