<svg width="25" height="25" viewBox="0 0 25 25" fill="none" xmlns="http://www.w3.org/2000/svg">
<path d="M10.583 24.4485C10.3643 24.4954 10.1377 24.5266 9.90332 24.5422C9.66895 24.5579 9.42676 24.5657 9.17676 24.5657C8.03613 24.5657 6.96582 24.3547 5.96582 23.9329C4.9502 23.4954 4.06738 22.9094 3.31738 22.175C2.56738 21.4407 1.97363 20.5813 1.53613 19.5969C1.09863 18.5969 0.879883 17.5422 0.879883 16.4329C0.879883 15.4329 1.05957 14.4719 1.41895 13.55C1.77832 12.6282 2.27832 11.8 2.91895 11.0657C3.1377 12.2375 3.55566 13.3157 4.17285 14.3C4.79004 15.2844 5.54395 16.1438 6.43457 16.8782C6.46582 17.6282 6.58301 18.3625 6.78613 19.0813C6.98926 19.8 7.27051 20.4836 7.62988 21.1321C7.98926 21.7805 8.41895 22.386 8.91895 22.9485C9.41895 23.511 9.97363 24.011 10.583 24.4485ZM22.8408 11.0657C22.6221 12.2219 22.208 13.2922 21.5986 14.2766C21.0049 15.261 20.2666 16.1125 19.3838 16.8313C18.501 17.55 17.5049 18.1125 16.3955 18.5188C15.2861 18.925 14.1143 19.1282 12.8799 19.1282C12.083 19.1282 11.3135 19.0422 10.5713 18.8704C9.8291 18.6985 9.12207 18.4563 8.4502 18.1438C8.7002 19.2532 9.16895 20.2727 9.85645 21.2024C10.5439 22.1321 11.3955 22.886 12.4111 23.4641C13.0361 23.8235 13.7002 24.0969 14.4033 24.2844C15.1064 24.4719 15.833 24.5657 16.583 24.5657C17.7236 24.5657 18.7939 24.3547 19.7939 23.9329C20.8096 23.4954 21.6924 22.9094 22.4424 22.175C23.1924 21.4407 23.7861 20.5813 24.2236 19.5969C24.6611 18.5969 24.8799 17.5422 24.8799 16.4329C24.8799 15.4329 24.7002 14.4758 24.3408 13.5618C23.9814 12.6477 23.4814 11.8157 22.8408 11.0657ZM12.8799 17.3235C14.0205 17.3235 15.0986 17.1125 16.1143 16.6907C17.1143 16.2532 17.9932 15.6672 18.751 14.9329C19.5088 14.1985 20.1064 13.3391 20.5439 12.3547C20.9658 11.3547 21.1768 10.2922 21.1768 9.16724C21.1768 8.05786 20.9658 7.00317 20.5439 6.00317C20.1064 5.0188 19.5088 4.15552 18.751 3.41333C17.9932 2.67114 17.1143 2.08911 16.1143 1.66724C15.0986 1.24536 14.0205 1.03442 12.8799 1.03442C11.7393 1.03442 10.6611 1.24536 9.64551 1.66724C8.64551 2.08911 7.7666 2.67114 7.00879 3.41333C6.25098 4.15552 5.65332 5.0188 5.21582 6.00317C4.79395 7.00317 4.58301 8.05786 4.58301 9.16724C4.58301 10.2922 4.79395 11.3547 5.21582 12.3547C5.65332 13.3391 6.25098 14.1985 7.00879 14.9329C7.7666 15.6672 8.64551 16.2532 9.64551 16.6907C10.6611 17.1125 11.7393 17.3235 12.8799 17.3235Z" fill="#312B59"/>
</svg>
